<svg width="100" height="26" viewBox="0 0 100 26" fill="none" xmlns="http://www.w3.org/2000/svg">
<path d="M32.732 22.3916C29.3664 18.9789 29.3664 13.4319 32.732 10.0192C32.732 10.0192 41.5835 0.588193 48.2786 0.500629C55.1652 0.41056 64.3646 10.0192 64.3646 10.0192C67.7301 13.4422 67.7301 18.9789 64.3646 22.3916C60.999 25.8043 55.5286 25.8043 52.163 22.3916C50.1599 20.3708 46.9265 20.3708 44.9336 22.3916C41.568 25.8043 36.0976 25.8043 32.732 22.3916Z" fill="#CAD8FF" fill-opacity="0.7"/>
<path d="M82.0958 25.4991C82.0583 25.4997 82.0206 25.5 81.983 25.5C78.1971 25.5 75.1203 22.3802 75.1203 18.5413C75.1203 16.2681 73.3017 14.4241 71.0542 14.4183C67.2684 14.4183 64.1916 11.2984 64.1916 7.45956C64.1916 3.62067 67.2626 0.506651 71.0542 0.500852C71.0542 0.500852 77.4677 0.404523 82.0958 2.26049C86.7239 0.404523 93.1374 0.500852 93.1374 0.500852C96.929 0.506651 100 3.62067 100 7.45956C100 11.2984 96.9232 14.4183 93.1374 14.4183C90.8899 14.4241 89.0713 16.2681 89.0713 18.5413C89.0713 22.3802 85.9945 25.5 82.2087 25.5C82.171 25.5 82.1334 25.4997 82.0958 25.4991Z" fill="#4C61FF" fill-opacity="0.7"/>
<path d="M34.3096 3.21849C34.2594 3.16501 34.2085 3.11202 34.1567 3.05954C32.4728 1.35201 30.2619 0.498826 28.0514 0.500003C25.84 0.498174 23.6281 1.35135 21.9435 3.05954C21.8899 3.11391 21.8371 3.16882 21.7852 3.22425C19.7825 5.07879 16.6729 5.02389 14.7258 3.05954C11.3602 -0.35318 5.88979 -0.35318 2.5242 3.05954C-0.841399 6.47226 -0.841399 12.0089 2.5242 15.4319C2.5242 15.4319 11.7235 25.0406 18.6102 24.9505C21.6782 24.9104 25.1992 22.9081 28.1136 20.7505C31.1521 22.9523 34.839 24.9922 38.0295 24.9505C44.7246 24.8629 53.576 15.4319 53.576 15.4319C56.9416 12.0192 56.9416 6.47226 53.576 3.05954C50.2104 -0.353178 44.7401 -0.353178 41.3745 3.05954C39.4353 5.02591 36.3215 5.07889 34.3096 3.21849Z" fill="#4C61FF" fill-opacity="0.7"/>
</svg>
