<svg width="69" height="45" viewBox="0 0 69 45" fill="none" xmlns="http://www.w3.org/2000/svg">
<style>
#favicon-blob-small{
    fill:#4957C1;
    fill-opacity:0.3;
}
#favicon-blob-large{
    fill:#4957C1;
    fill-opacity:0.2;
}

@media (prefers-color-scheme: dark) {
    #favicon-blob-small{
        fill:#4C61FF;
        fill-opacity:0.7;
    }
    #favicon-blob-large{
        fill:#CAD8FF;
        fill-opacity:0.7;
    }
}
</style>

        <path id='favicon-blob-small' d="M4.69498 40.0228C-1.54424 33.7835 -1.54424 23.6425 4.69498 17.4032C4.69498 17.4032 21.1041 0.161237 33.5156 0.00115048C46.2822 -0.163517 63.3361 17.4032 63.3361 17.4032C69.5754 23.6613 69.5754 33.7835 63.3361 40.0228C57.0969 46.262 46.9558 46.262 40.7166 40.0228C37.0032 36.3282 31.0091 36.3282 27.3145 40.0228C21.0753 46.262 10.9342 46.262 4.69498 40.0228Z" />
        <path id='favicon-blob-large' d="M44.0156 3.5C50.2548 9.73922 49.5755 21.0604 43.3363 27.2996C43.3363 27.2996 26.8713 45.8896 14.5157 44.7017C2.01568 43.5 -3.67122 28.2479 2.51568 20C8.90041 11.4883 23.5156 3 23.5156 3C23.5156 3 34.5156 -4 44.0156 3.5Z" />
    
</svg>
