<svg width="209" height="173" viewBox="0 0 209 173" fill="none" xmlns="http://www.w3.org/2000/svg">
<path d="M55.3235 172.118C24.7692 172.118 1.33558e-06 147.348 0 116.794C-1.33557e-06 86.2398 24.7692 61.4706 55.3235 61.4706H104.5C135.054 61.4706 159.824 86.2398 159.824 116.794C159.824 147.348 135.054 172.118 104.5 172.118H55.3235Z" fill="#212328" fill-opacity="0.32"/>
<path d="M129.088 110.647C98.5339 110.647 73.7647 85.8779 73.7647 55.3235C73.7647 24.7692 98.5339 1.33557e-06 129.088 0C159.643 -1.33557e-06 184.412 24.7692 184.412 55.3235C184.412 85.8779 159.643 110.647 129.088 110.647Z" fill="#4CAE4F"/>
<path d="M153.676 98.3529C143.492 98.3529 135.235 90.0965 135.235 79.9118C135.235 69.727 143.492 61.4706 153.676 61.4706L190.559 61.4706C200.744 61.4706 209 69.727 209 79.9118C209 90.0965 200.744 98.3529 190.559 98.3529H153.676Z" fill="#F4A462"/>
<path d="M126.592 118.724C126.067 126.862 122.695 134.851 116.476 141.071C102.891 154.655 80.8666 154.655 67.2821 141.071L42.6932 116.482L67.281 91.8942C80.8655 78.3098 102.89 78.3098 116.475 91.8942C123.835 99.2547 127.207 109.093 126.592 118.724Z" fill="#212328" fill-opacity="0.32"/>
<path d="M88.1252 0.514218C88.8728 -0.18549 90.1031 -0.192633 90.6978 0.625518C91.088 1.16236 91.4196 1.73641 91.6864 2.33917C92.1981 3.49545 92.4615 4.73474 92.4615 5.98629C92.4615 7.23784 92.1981 8.47714 91.6864 9.63342C91.1746 10.7897 90.4245 11.8403 89.4789 12.7253C88.5333 13.6103 87.4107 14.3123 86.1752 14.7912C84.9397 15.2702 83.6155 15.5167 82.2782 15.5167C80.941 15.5167 79.6168 15.2702 78.3813 14.7912C77.7372 14.5416 77.1238 14.2313 76.5502 13.8661C75.676 13.3094 75.6837 12.1581 76.4313 11.4584C77.1789 10.7587 78.3849 10.7893 79.3208 11.2499C79.4919 11.3341 79.6673 11.4111 79.8465 11.4806C80.6175 11.7794 81.4438 11.9333 82.2782 11.9333C83.1127 11.9333 83.939 11.7794 84.7099 11.4806C85.4809 11.1817 86.1814 10.7437 86.7714 10.1914C87.3615 9.63921 87.8296 8.98362 88.1489 8.2621C88.4682 7.54058 88.6326 6.76726 88.6326 5.98629C88.6326 5.20533 88.4682 4.43201 88.1489 3.71049C88.0747 3.54275 87.9924 3.37857 87.9024 3.21843C87.4103 2.3426 87.3775 1.21393 88.1252 0.514218Z" fill="#1B255A"/>
<path d="M78.3457 32.955C78.6193 33.9108 79.6809 34.4927 80.6331 34.0625C81.2578 33.7802 81.8516 33.4382 82.4047 33.041C83.4656 32.2791 84.3559 31.3291 85.0245 30.2452C85.6931 29.1613 86.1271 27.9648 86.3017 26.724C86.4762 25.4831 86.3879 24.2223 86.0418 23.0134C85.6957 21.8045 85.0985 20.6712 84.2845 19.6783C83.4704 18.6853 82.4553 17.8522 81.2972 17.2264C80.139 16.6007 78.8606 16.1945 77.5347 16.0311C76.8436 15.946 76.1466 15.9277 75.4547 15.9756C74.4003 16.0485 73.7917 17.0492 74.0654 18.005C74.3391 18.9608 75.3999 19.4986 76.4564 19.5377C76.6495 19.5448 76.8426 19.5602 77.0349 19.5839C77.8623 19.6859 78.66 19.9393 79.3827 20.3298C80.1054 20.7203 80.7388 21.2401 81.2468 21.8597C81.7548 22.4793 82.1274 23.1865 82.3434 23.9408C82.5593 24.6952 82.6144 25.482 82.5055 26.2562C82.3966 27.0305 82.1258 27.7772 81.7086 28.4535C81.2913 29.1298 80.7358 29.7226 80.0738 30.1981C79.9199 30.3086 79.7609 30.4123 79.5975 30.5088C78.7034 31.0371 78.072 31.9992 78.3457 32.955Z" fill="#1B255A"/>
<path d="M106.901 19.1702C107.246 20.1645 106.664 21.2522 105.556 21.3843C104.828 21.4709 104.092 21.488 103.357 21.4342C101.949 21.331 100.575 20.9692 99.316 20.3693C98.0566 19.7695 96.9358 18.9434 96.0176 17.9381C95.0993 16.9329 94.4017 15.7682 93.9644 14.5106C93.5271 13.253 93.3587 11.9272 93.4689 10.6087C93.5792 9.29022 93.9658 8.00497 94.6067 6.82634C95.2477 5.6477 96.1304 4.59876 97.2045 3.7394C97.7644 3.29142 98.3707 2.89953 99.0131 2.56901C99.9922 2.0653 101.147 2.62387 101.493 3.61818C101.839 4.61249 101.23 5.66071 100.318 6.26477C100.151 6.37522 99.9894 6.49293 99.8336 6.61759C99.1633 7.15384 98.6125 7.80838 98.2126 8.54385C97.8126 9.27931 97.5714 10.0813 97.5026 10.904C97.4338 11.7268 97.5389 12.5541 97.8117 13.3388C98.0846 14.1236 98.52 14.8503 99.0929 15.4776C99.6659 16.1049 100.365 16.6204 101.151 16.9947C101.937 17.369 102.794 17.5948 103.673 17.6592C103.877 17.6741 104.082 17.6803 104.286 17.6777C105.403 17.6638 106.555 18.1759 106.901 19.1702Z" fill="#1B255A"/>
<path d="M104.572 25.5848C105.403 24.8855 105.48 23.6709 104.59 23.0379C104.007 22.6226 103.378 22.2631 102.713 21.9661C101.438 21.3962 100.056 21.0669 98.6444 20.9971C97.2333 20.9272 95.8213 21.1182 94.489 21.5591C93.1568 22 91.9303 22.6821 90.8797 23.5666C89.8292 24.4511 88.975 25.5206 88.3661 26.714C87.7571 27.9074 87.4053 29.2013 87.3307 30.522C87.2561 31.8427 87.4602 33.1641 87.9313 34.411C88.1768 35.061 88.4925 35.684 88.8722 36.2709C89.451 37.1653 90.7496 37.222 91.5803 36.5226C92.4109 35.8233 92.4436 34.6306 91.9766 33.6808C91.8912 33.5071 91.8141 33.3295 91.7458 33.1486C91.4518 32.3706 91.3245 31.546 91.371 30.7219C91.4176 29.8978 91.6371 29.0904 92.0171 28.3457C92.3971 27.601 92.9301 26.9337 93.5856 26.3818C94.2412 25.8298 95.0065 25.4042 95.8378 25.1291C96.6692 24.854 97.5503 24.7348 98.4308 24.7784C99.3113 24.8219 100.174 25.0274 100.97 25.383C101.155 25.4657 101.335 25.5561 101.511 25.6539C102.471 26.1888 103.742 26.2841 104.572 25.5848Z" fill="#1B255A"/>
<path d="M129.087 55.3235L116.793 67.6176M116.793 55.3235L129.087 67.6176" stroke="#1B255A" stroke-width="3.5" stroke-linecap="round" stroke-linejoin="round"/>
<path d="M190.558 43.0293L178.264 55.3234M178.264 43.0293L190.558 55.3234" stroke="#1B255A" stroke-width="3.5" stroke-linecap="round" stroke-linejoin="round"/>
</svg>
